<svg width="31" height="44" viewBox="0 0 31 44" fill="none" xmlns="http://www.w3.org/2000/svg">
<path d="M21.5729 17.6825C21.0521 18.0014 20.6206 18.4473 20.3189 18.9783C20.0173 19.5094 19.8553 20.1083 19.8481 20.719C19.8502 21.4064 20.0538 22.078 20.4339 22.6508C20.8139 23.2236 21.3535 23.6723 21.986 23.9413C21.7367 24.7459 21.3676 25.5084 20.8912 26.2031C20.2096 27.1843 19.4969 28.1654 18.4125 28.1654C17.3281 28.1654 17.0492 27.5354 15.7995 27.5354C14.5808 27.5354 14.147 28.1861 13.1555 28.1861C12.164 28.1861 11.4721 27.2772 10.6768 26.1618C9.62631 24.5993 9.04895 22.7668 9.01404 20.8842C9.01404 17.7858 11.028 16.1437 13.0109 16.1437C14.0644 16.1437 14.9423 16.8356 15.6033 16.8356C16.2333 16.8356 17.2145 16.1023 18.4125 16.1023C19.0285 16.0864 19.6389 16.2223 20.19 16.4978C20.7412 16.7734 21.2161 17.1802 21.5729 17.6825ZM17.8445 14.7907C18.3726 14.1695 18.6716 13.3859 18.6914 12.5707C18.6923 12.4633 18.6819 12.356 18.6604 12.2507C17.7533 12.3393 16.9144 12.7717 16.3159 13.4591C15.7827 14.0556 15.4725 14.8183 15.438 15.6176C15.4384 15.7148 15.4488 15.8117 15.469 15.9068C15.5406 15.9204 15.6132 15.9273 15.6859 15.9275C16.104 15.8943 16.511 15.7763 16.882 15.5809C17.2531 15.3855 17.5806 15.1166 17.8445 14.7907Z" fill="black" fill-opacity="0.8"/>
</svg>
