<svg width="24" height="24" viewBox="0 0 24 24" fill="none" xmlns="http://www.w3.org/2000/svg">
<rect width="24" height="24" rx="12" fill="#D2D2D7"/>
<mask id="mask0_1811_362" style="mask-type:alpha" maskUnits="userSpaceOnUse" x="6" y="6" width="12" height="12">
<g clip-path="url(#clip0_1811_362)">
<path d="M8.99994 15.1501V8.86205C8.98455 8.73987 8.99545 8.6158 9.03192 8.49817C9.06839 8.38054 9.12958 8.27206 9.2114 8.18002C9.29322 8.08797 9.39377 8.01448 9.50632 7.96447C9.61886 7.91446 9.74079 7.88909 9.86394 7.89005C10.1 7.87998 10.3332 7.94511 10.5299 8.07605L15.6479 11.0761C16.1039 11.3401 16.3499 11.5561 16.3499 11.9821C16.3499 12.4081 16.1039 12.6241 15.6479 12.8881L10.5299 15.8881C10.3332 16.019 10.1 16.0841 9.86394 16.0741C9.74473 16.0762 9.6264 16.0532 9.5166 16.0067C9.40681 15.9602 9.308 15.8912 9.22656 15.8041C9.14513 15.717 9.08288 15.6138 9.04384 15.5011C9.0048 15.3885 8.98985 15.2689 8.99994 15.1501Z" fill="black"/>
</g>
</mask>
<g mask="url(#mask0_1811_362)">
<rect x="6" y="6" width="12" height="12" fill="black"/>
</g>
<defs>
<clipPath id="clip0_1811_362">
<rect width="12" height="12" fill="white" transform="translate(6 6)"/>
</clipPath>
</defs>
</svg>
